<svg width="270" height="91" viewBox="0 0 270 91" fill="none" xmlns="http://www.w3.org/2000/svg">
<path fill-rule="evenodd" clip-rule="evenodd" d="M89.6805 41.0619L109.718 41.1064L109.807 46.058L113.646 46.0134C113.824 44.8468 113.842 38.2477 113.601 37.1701L111.499 37.1612C110.511 36.5378 102.807 22.2353 101.391 20L97.9628 20.0534L88.1577 37.1434C84.9071 37.2146 85.6463 36.805 85.6552 40.3673C85.6552 42.1039 85.5305 44.3392 85.7175 46.0491L89.6182 46.0223L89.6805 41.0619ZM128.019 37.1612L116.611 37.2146L116.602 41.053L126.007 40.9996L128.019 37.1612ZM226.516 41.0174C228.947 41.1688 231.557 41.0352 234.015 41.0708C235.885 41.0886 235.787 41.3202 236.562 39.8507C237.069 38.9156 237.63 38.2655 237.835 37.2146L226.516 37.2681V41.0174ZM116.647 34.2936L128.162 34.3114C130.175 34.3114 129.516 34.5697 131.991 30.5265L116.638 30.4374L116.647 34.2936ZM226.507 32.9221L226.534 34.2491L227.433 34.3114L238.61 34.3025L239.777 34.2669L241.914 30.5354L226.507 30.4463V32.9221ZM116.593 27.5609L133.63 27.65C134.227 26.7594 135.58 24.6042 135.545 23.8027L116.674 23.7938L116.593 27.5609ZM217.86 41.053L221.921 40.9639L221.823 23.8027L217.851 23.8383L217.86 41.053ZM226.463 27.5253C228.146 27.9349 240.97 27.739 243.437 27.6232C243.971 27.0978 245.53 24.5063 245.539 23.7938H226.507L226.463 27.5253ZM135.901 41.053C136.48 39.824 141.814 30.4107 142.384 29.9031C143.159 31.141 148.636 40.9194 148.974 41.053H153.908C153.623 40.1001 145.483 25.7887 144.085 23.7849L140.87 23.8205L130.994 41.053H135.901ZM199.746 41.053C203.014 41.0886 206.416 41.1242 209.693 41.0619C217.726 40.9105 216.898 31.8802 212.953 30.3217C210.619 29.3955 206.434 30.384 203.842 29.814C203.86 28.3001 204.065 25.094 203.7 23.7938H199.879C199.452 25.2454 199.665 38.5861 199.746 41.053ZM203.869 33.6524C205.142 33.4297 207.217 33.5544 208.589 33.5455C210.326 33.5455 211.635 33.5188 211.563 35.5493C211.501 37.4284 210.094 37.3482 208.366 37.3393C207.013 37.3304 205.125 37.4729 203.851 37.2325L203.869 33.6524ZM154.3 34.2312C156.598 44.918 176.11 43.5377 174.284 30.5265C172.753 19.626 151.53 21.3626 154.3 34.2312ZM162.377 27.4362C169.974 24.907 172.931 35.4246 166.18 37.1701C158.432 39.1739 155.689 29.6715 162.377 27.4362ZM192.746 30.669C194.126 29.9832 194.848 28.3891 194.171 26.2696C193.654 24.6755 192.203 23.963 190.404 23.8472C186.779 23.5979 181.934 23.776 178.203 23.8383L178.221 41.053C181.792 41.0886 190.377 41.5517 193.022 40.3762C194.776 39.5925 195.818 37.9894 195.738 35.3266C195.631 31.7466 193.627 31.7733 192.746 30.669ZM182.246 27.6143C183.35 27.365 185.639 27.5164 186.895 27.5164C188.462 27.5075 190.199 27.1245 190.154 28.968C190.11 30.758 188.462 30.4463 186.895 30.4463C185.621 30.4374 183.359 30.5977 182.201 30.3306L182.246 27.6143ZM182.273 33.7325C184.045 33.6168 185.977 33.6969 187.768 33.6969C189.54 33.688 191.446 33.3229 191.419 35.5493C191.401 37.6154 189.611 37.3482 187.768 37.3393C185.96 37.3304 184.054 37.4017 182.246 37.3037L182.273 33.7325ZM93.4209 37.1434C93.5901 35.8877 99.2007 26.4121 99.6638 26.1983C100.759 27.8014 101.739 29.7606 102.79 31.5595C103.395 32.6015 105.542 35.9411 105.711 37.1612L93.4209 37.1434Z" fill="#272727"/>
<path fill-rule="evenodd" clip-rule="evenodd" d="M202.569 64.9291L206.158 64.9558C206.941 63.7446 215.304 54.2957 215.865 54.0553L215.9 64.9558L220.104 64.938L220.122 47.8569C219.222 47.6699 218.207 47.6699 217.281 47.7144C215.624 47.7857 214.921 49.4778 212.552 52.0693C211.448 53.2894 207.796 57.8758 206.728 58.4636L206.719 47.7412L202.693 47.6966C202.239 49.4332 202.515 62.2307 202.569 64.9291ZM123.059 53.9395C123.317 54.1354 123.184 54.0018 123.424 54.2868C123.46 54.3224 123.504 54.3759 123.531 54.4115C123.558 54.4471 123.593 54.5006 123.62 54.5362L129.587 64.9647L134.699 64.9113C134.36 63.8248 128.447 53.8148 127.334 51.8912L125.499 48.6852C125.312 48.3557 125.383 48.4447 125.152 48.1419C124.965 47.8837 125 47.946 124.813 47.7234L121.527 47.8391C119.479 51.0184 116.299 56.8962 114.162 60.6188C113.53 61.7141 112.176 63.7981 111.829 64.9647L116.673 64.8935L123.059 53.9395ZM162.725 58.2588L171.684 58.3745L171.702 64.9558L175.816 64.8846L175.736 47.7055L171.808 47.7323C171.319 49.6915 172.272 52.5324 171.523 54.1978C170.241 54.7232 164.613 54.4026 162.725 54.3224L162.609 47.7055L158.637 47.7144C158.174 49.4867 158.459 62.1951 158.521 64.9647L162.707 64.8846L162.725 58.2588ZM184.544 58.4992L184.535 47.7501L180.411 47.7323L180.402 64.9558C181.195 64.9647 182.629 65.0449 183.341 64.9647C184.383 64.84 184.463 64.3235 185.087 63.62C186.494 62.0526 192.79 54.5985 193.681 54.1443L193.716 64.84L197.955 64.9558L197.964 47.759C193.529 47.2157 194.188 47.7768 190.314 52.194C189.531 53.0757 185.247 58.3567 184.544 58.4992ZM139.997 64.9469C140.327 64.3769 149.322 54.2245 149.722 54.0731L149.749 64.9736L153.917 64.8668L153.837 47.759C150.319 47.3137 150.275 47.8035 149.224 49.0147L140.585 58.4903L140.478 47.6966L136.497 47.7234C136.07 49.2284 136.31 62.4088 136.373 64.9558L139.997 64.9469Z" fill="#272727"/>
<path fill-rule="evenodd" clip-rule="evenodd" d="M59.4012 64.4482C60.7192 64.6352 63.4622 64.5818 64.8782 64.5462C66.1161 64.5195 66.0894 64.3057 66.5792 63.4062C66.9532 62.7116 67.1491 62.3465 67.5232 61.7053L70.9697 55.7207C71.4684 54.9993 70.9786 55.4268 71.6465 55.0438C72.4035 55.8275 73.6592 58.4814 74.5319 59.8707C78.0853 65.5347 75.1999 64.5284 83.5445 64.5105C83.4376 63.3261 81.3893 60.3338 80.659 58.9623L71.6465 43.5377C70.6758 44.1166 59.4012 64.4482 59.4012 64.4482ZM38.6154 54.8568L60.3541 59.1137C60.6391 58.7397 61.8592 56.7804 61.966 56.1749C61.3426 55.5069 53.8352 52.5146 52.437 51.9001C50.9408 51.2411 43.7985 47.9104 42.4983 47.8213C41.7324 48.8544 38.6688 53.9128 38.6154 54.8568ZM48.6788 37.3305L61.307 46.7883C62.3935 47.5987 64.7802 49.6025 65.7955 49.8518L67.3807 47.0198C66.7128 45.8443 64.6734 43.8939 63.7828 42.7718L56.6672 34.543C55.9814 33.7504 53.7105 30.8471 52.8021 30.4019C52.0629 30.8204 52.4548 30.4642 51.5998 31.9782C50.8874 33.2428 48.7857 36.4132 48.6788 37.3305ZM43.6827 46.2272C46.9689 47.6165 50.2106 49.0503 53.3454 50.3862C54.7525 50.9828 61.8948 54.3403 63.0971 54.4204L64.7268 51.6152C64.1301 50.8849 48.5363 39.3253 47.7615 39.0225C47.0491 39.4411 43.8074 45.1942 43.6827 46.2272ZM33.0137 64.5105C40.165 64.7421 48.0999 64.4393 55.4382 64.5284C57.3529 64.5551 57.2282 64.7065 57.9852 63.3261C58.5374 62.3198 59.0183 61.8389 59.2587 60.6633C55.7677 59.844 51.8848 59.2562 48.2513 58.5349C46.5414 58.1964 38.5441 56.4687 37.235 56.6914C36.4157 58.0807 35.8101 59.2651 35.062 60.5653C34.4832 61.5539 33.1473 63.4864 33.0137 64.5105ZM68.3603 45.1942C68.6809 44.8379 70.0168 42.6739 70.1949 42.2286C70.658 41.0708 69.6071 39.8864 69.0104 38.8622C67.7992 36.7872 58.9737 21.0598 58.2791 20.6769C57.7715 20.9975 54.7346 26.4477 54.2092 27.3472C53.3543 28.8345 54.6367 29.5914 55.643 30.7581L63.1772 39.4411C64.0411 40.4653 67.541 44.7756 68.3603 45.1942Z" fill="#272727"/>
</svg>
