<svg width="53" height="43" viewBox="0 0 53 43" fill="none" xmlns="http://www.w3.org/2000/svg">
<path fill-rule="evenodd" clip-rule="evenodd" d="M20.3505 10.001C23.9129 9.99634 24.0153 10.001 24.2435 10.1779V13.5298C24.2435 16.8166 24.2435 16.8818 24.0572 17.082L20.3552 17.0773C16.9139 17.0773 16.6485 17.068 16.5693 16.9935C16.4901 16.919 16.4855 16.7095 16.4762 10.1919L16.5833 10.0941C16.695 10.001 16.7416 10.001 20.3505 10.001ZM16.9931 13.5717L17.0024 16.5187H20.0758V10.5596C17.7428 10.5596 17.0489 10.5736 17.0257 10.5922C17.0024 10.6062 16.9884 11.947 16.9931 13.5717ZM20.6346 16.5187H23.708V10.5596H20.6346V16.5187ZM32.9282 10.7505C33.0679 10.7505 33.3613 10.7691 33.5802 10.7924C33.799 10.8204 34.1343 10.8855 34.3252 10.9367C34.5162 10.988 34.884 11.1323 35.1402 11.2533C35.3963 11.3744 35.7735 11.6025 35.9784 11.7561C36.1832 11.9097 36.4766 12.1704 36.6256 12.3334C36.7793 12.4963 37.0121 12.7989 37.1472 13.0038C37.2822 13.2086 37.4592 13.5252 37.5383 13.7021C37.6175 13.8837 37.7246 14.177 37.7758 14.3539C37.8224 14.5354 37.8829 14.8054 37.9109 14.9591C37.9388 15.1313 37.9668 18.5671 37.9854 23.851C38.004 28.5903 38.004 32.5428 37.99 32.6406C37.9714 32.7337 37.9109 32.8547 37.8503 32.9059C37.7945 32.9571 37.7293 32.999 37.7013 32.999C37.6734 32.999 37.6129 32.9664 37.5616 32.9245C37.4685 32.8547 37.4685 32.7849 37.4219 15.0987L37.3009 14.6565C37.231 14.4144 37.1146 14.0792 37.0401 13.9116C36.9656 13.744 36.7979 13.4507 36.6675 13.2598C36.5372 13.0689 36.2997 12.7757 36.1367 12.6127C35.9737 12.4498 35.7129 12.2263 35.5593 12.1146C35.4056 12.0075 35.1029 11.8306 34.884 11.7282C34.6652 11.6258 34.3206 11.4954 34.1157 11.4395C33.8083 11.3511 33.6174 11.3325 33.0214 11.3325C32.4067 11.3278 32.239 11.3464 31.9038 11.4349C31.6849 11.4954 31.3636 11.6118 31.182 11.6956C31.0004 11.7794 30.7303 11.9284 30.5766 12.0308C30.4229 12.1285 30.1528 12.3474 29.9759 12.5149C29.8036 12.6825 29.5614 12.9433 29.4497 13.0969C29.3333 13.2505 29.1563 13.5392 29.0585 13.7347C28.9561 13.9349 28.821 14.2794 28.7558 14.5028C28.686 14.7403 28.6255 15.1034 28.5742 15.811L28.7139 15.8436C28.7884 15.8576 28.9887 15.9088 29.1563 15.96C29.324 16.0112 29.5847 16.1276 29.7384 16.216C29.8921 16.3092 30.1063 16.4721 30.218 16.5792C30.3298 16.6863 30.4974 16.8771 30.5906 17.0075C30.6837 17.1332 30.8188 17.3753 30.8886 17.5429C30.9585 17.7105 31.033 17.9572 31.0516 18.0969C31.0842 18.3203 31.1075 18.3576 31.2518 18.4414C31.3403 18.4879 31.466 18.5764 31.5219 18.6276C31.5824 18.6834 31.6756 18.8091 31.7221 18.9023C31.778 19.014 31.8106 19.1769 31.8106 19.3352C31.8106 19.4888 31.778 19.6611 31.7221 19.7635C31.6756 19.8613 31.5545 20.0103 31.4567 20.0894C31.3589 20.1732 31.182 20.2663 31.0656 20.2942C30.9491 20.3222 30.7815 20.3315 30.693 20.3129C30.6045 20.2942 30.4555 20.243 30.3671 20.1965C30.2786 20.1546 30.1528 20.0568 30.0877 19.9823C30.0225 19.9078 29.9386 19.7635 29.906 19.6611C29.8688 19.5587 29.8502 19.3678 29.8595 19.2374C29.8734 19.0838 29.92 18.9395 30.0038 18.8091C30.0783 18.7021 30.1994 18.5764 30.2786 18.5298C30.3577 18.4879 30.4555 18.4274 30.4974 18.3995C30.5719 18.3483 30.5719 18.325 30.4928 18.0503C30.4462 17.8874 30.3438 17.636 30.2646 17.4963C30.1854 17.3566 30.0131 17.1332 29.8828 17.0028C29.7337 16.8585 29.5102 16.7049 29.296 16.5978C29.1051 16.5093 28.8676 16.4209 28.5975 16.379L28.5929 17.6592L28.7232 17.7151C28.7931 17.7477 28.9188 17.8408 29.0026 17.9246C29.0865 18.0084 29.1843 18.1574 29.2215 18.2505C29.2634 18.3483 29.296 18.5159 29.296 18.6229C29.296 18.7347 29.2541 18.9069 29.2075 19.0093C29.161 19.1118 29.0539 19.2607 28.9654 19.3399C28.8769 19.4144 28.7232 19.5075 28.6208 19.5401C28.5183 19.5773 28.3274 19.5959 28.197 19.5866C28.0434 19.5726 27.899 19.5261 27.7686 19.4376C27.6569 19.3678 27.5218 19.2188 27.4473 19.0885C27.3588 18.9255 27.3262 18.8045 27.3262 18.6136C27.3262 18.4227 27.3588 18.3017 27.4473 18.1341C27.5172 18.0131 27.6522 17.8641 27.7453 17.7989C27.8431 17.7337 27.9502 17.6825 27.9782 17.6825C28.0247 17.6825 28.0387 17.5196 28.0387 17.0308C28.0387 16.4814 28.0294 16.379 27.9689 16.379C27.9316 16.379 27.7733 16.4209 27.6196 16.4721C27.4659 16.5233 27.2517 16.6211 27.14 16.6863C27.0329 16.7561 26.8559 16.8957 26.7442 17.0028C26.6324 17.1052 26.4834 17.2868 26.4089 17.4032C26.3344 17.5196 26.2319 17.7384 26.176 17.892C26.1248 18.0456 26.0829 18.2132 26.0782 18.2645C26.0782 18.325 26.1528 18.4041 26.2785 18.4879C26.3902 18.5578 26.5253 18.6834 26.5812 18.7672C26.6417 18.851 26.7116 19 26.7395 19.1024C26.7674 19.2049 26.7768 19.3725 26.7581 19.4749C26.7442 19.5773 26.679 19.7496 26.6138 19.8566C26.5439 19.9823 26.4182 20.1034 26.2785 20.1825C26.1062 20.2849 25.9991 20.3129 25.7802 20.3129C25.5614 20.3129 25.4543 20.2849 25.2773 20.1825C25.1314 20.0987 25.0165 19.9823 24.9327 19.8334C24.8303 19.6611 24.8023 19.5587 24.8023 19.3352C24.807 19.1723 24.8349 18.9954 24.8815 18.9162C24.9234 18.8371 25.0258 18.7067 25.1097 18.6229C25.1981 18.5391 25.3192 18.4507 25.3844 18.4274C25.4775 18.3902 25.5101 18.3343 25.5381 18.162C25.5614 18.0363 25.6405 17.7803 25.715 17.5894C25.7895 17.3985 25.9525 17.1052 26.0782 16.9376C26.1993 16.77 26.4182 16.5466 26.5532 16.4395C26.6929 16.3324 26.9304 16.1835 27.0841 16.1043C27.2378 16.0252 27.5078 15.9274 28.0154 15.8157L28.048 15.3874C28.0667 15.1499 28.1365 14.7496 28.2017 14.4935C28.2715 14.2142 28.4206 13.8231 28.5696 13.5159C28.7232 13.204 28.9468 12.8501 29.1423 12.6127C29.3146 12.3939 29.5847 12.1146 29.7384 11.9889C29.8921 11.8585 30.1342 11.677 30.2739 11.5839C30.4136 11.4861 30.6558 11.3464 30.8094 11.2719C30.9631 11.1928 31.2565 11.0764 31.4614 11.0112C31.6663 10.9461 31.9596 10.8669 32.1133 10.8436C32.267 10.8157 32.4579 10.7878 32.5324 10.7785C32.6069 10.7691 32.7885 10.7552 32.9282 10.7505ZM27.9456 18.3669C27.8944 18.4367 27.8478 18.5484 27.8478 18.6136C27.8478 18.6788 27.899 18.7905 27.9549 18.865C28.0154 18.9395 28.1132 19.0186 28.1784 19.0419C28.2529 19.0652 28.3507 19.0605 28.4438 19.0326C28.523 19 28.6255 18.9348 28.6627 18.879C28.7046 18.8231 28.7372 18.7067 28.7372 18.6276C28.7372 18.5438 28.7186 18.4321 28.6906 18.3808C28.6627 18.3296 28.5789 18.2551 28.5044 18.2179C28.4299 18.1807 28.3367 18.1481 28.3041 18.1527C28.2762 18.1527 28.2017 18.1713 28.1458 18.1946C28.0899 18.2132 28.0015 18.2924 27.9456 18.3669ZM15.9872 18.3389C16.0338 18.3343 16.1595 18.3576 16.2713 18.3808C16.3784 18.4088 16.5507 18.4972 16.6485 18.581C16.7509 18.6602 16.872 18.8138 16.9186 18.9162C16.9605 19.0186 17.0024 19.2002 17.0024 19.3259C17.0024 19.4469 16.9698 19.6239 16.9279 19.7216C16.8906 19.8147 16.8114 19.9451 16.7556 20.0009C16.6997 20.0615 16.574 20.1546 16.3039 20.2896L16.3085 20.9181L16.5041 21.0158C16.6159 21.0671 16.7602 21.1974 16.8394 21.3091C16.9744 21.5 16.9791 21.5279 17.0024 22.6639H34.1855V22.1657C34.1855 21.7281 34.1995 21.635 34.2973 21.4302C34.3625 21.2952 34.4836 21.1462 34.5907 21.0717C34.6885 21.0019 34.7956 20.9414 34.8282 20.9414C34.8654 20.9414 34.884 20.8482 34.884 20.3129L34.6419 20.1499C34.4929 20.0475 34.3671 19.9171 34.3066 19.8008C34.2554 19.6983 34.2042 19.5214 34.1948 19.405C34.1809 19.2887 34.1995 19.1118 34.2368 19.0093C34.2694 18.9069 34.3811 18.7393 34.4836 18.6369C34.5907 18.5345 34.7583 18.4227 34.8608 18.3902C34.9632 18.3622 35.0982 18.3343 35.1634 18.3343C35.2286 18.3343 35.359 18.3576 35.4568 18.3808C35.5499 18.4088 35.7083 18.4972 35.8061 18.581C35.8992 18.6695 36.0156 18.8185 36.0668 18.9209C36.1134 19.0233 36.1507 19.2049 36.1507 19.3352C36.1507 19.4702 36.1134 19.6471 36.0575 19.7542C36.011 19.8566 35.8945 20.0009 35.8107 20.0754C35.7222 20.1499 35.6058 20.2291 35.5499 20.2477C35.4521 20.2849 35.4428 20.3222 35.4428 20.6155C35.4428 20.8436 35.4615 20.9414 35.5034 20.9414C35.5313 20.9414 35.6477 21.0019 35.7595 21.081C35.8666 21.1555 36.0016 21.3091 36.1646 21.6164V32.8221L36.0482 32.9106C35.9411 32.9944 35.8573 33.0037 35.1634 32.999C34.4323 32.999 34.3904 32.9897 34.288 32.892C34.2042 32.8082 34.1855 32.7383 34.1855 32.2542H17.0024V32.5335C17.0024 32.7663 16.9837 32.8314 16.8999 32.9059C16.8021 32.9944 16.7323 32.999 16.0245 32.999C15.4936 32.999 15.2328 32.9804 15.1816 32.9385C15.1397 32.9059 15.0838 32.8361 15.0559 32.7802C15.014 32.7011 15 31.2718 15 21.7328L15.1164 21.4767C15.1956 21.2998 15.2934 21.1788 15.4331 21.081C15.5402 21.0019 15.6566 20.9414 15.6892 20.9414C15.7264 20.9414 15.7451 20.8436 15.7451 20.2896L15.5588 20.1965C15.4564 20.1453 15.3213 20.0335 15.2608 19.9544C15.2002 19.8706 15.1164 19.717 15.0745 19.6145C15.0326 19.5121 15 19.3818 15 19.3259C15 19.2654 15.0466 19.1071 15.1071 18.9767C15.1676 18.8371 15.2887 18.6695 15.3865 18.5903C15.4796 18.5159 15.638 18.4274 15.7311 18.3948C15.8289 18.3669 15.9453 18.3389 15.9919 18.3389H15.9872ZM30.4043 19.1956C30.3671 19.3073 30.3717 19.3678 30.4276 19.4982C30.4648 19.5866 30.5533 19.689 30.6185 19.7216C30.6837 19.7496 30.7768 19.7775 30.8281 19.7775C30.8793 19.7775 30.9771 19.7496 31.0469 19.7123C31.1214 19.6797 31.2053 19.5913 31.2379 19.5168C31.2751 19.4423 31.2891 19.3259 31.2751 19.2561C31.2611 19.1816 31.1959 19.0745 31.1307 19.0093C31.0469 18.9255 30.9631 18.8929 30.8374 18.8929C30.7442 18.8929 30.6185 18.9302 30.5626 18.9767C30.5068 19.0186 30.4369 19.1211 30.4043 19.1956ZM25.3378 19.3306C25.3332 19.4563 25.3658 19.5307 25.4729 19.6378C25.5753 19.7402 25.6545 19.7775 25.7802 19.7775C25.9013 19.7775 25.9805 19.7402 26.0829 19.6378C26.1807 19.5354 26.2179 19.4516 26.2179 19.3352C26.2179 19.2142 26.1807 19.135 26.0782 19.0326C25.9758 18.9302 25.8966 18.8929 25.7709 18.8929C25.6498 18.8929 25.5707 18.9302 25.4729 19.028C25.3797 19.1257 25.3378 19.2142 25.3378 19.3306ZM15.5961 19.1956C15.5588 19.3073 15.5635 19.3678 15.6193 19.4982C15.6566 19.5866 15.7451 19.689 15.8103 19.7216C15.8755 19.7496 15.9686 19.7775 16.0198 19.7775C16.071 19.7775 16.1735 19.7449 16.2526 19.7077C16.3504 19.6611 16.4063 19.582 16.4436 19.4656C16.4808 19.3306 16.4808 19.2561 16.4296 19.1537C16.397 19.0792 16.3272 18.9907 16.2759 18.9535C16.2247 18.9209 16.1083 18.8929 16.0198 18.8929C15.9313 18.8929 15.8103 18.9302 15.7544 18.9767C15.6985 19.0186 15.6287 19.1211 15.5961 19.1956ZM34.8002 19.0745C34.7676 19.1164 34.7397 19.2374 34.7397 19.3492C34.7397 19.5121 34.763 19.5633 34.8794 19.6611C34.9632 19.7309 35.0796 19.7775 35.1727 19.7775C35.2519 19.7775 35.3637 19.7496 35.4149 19.717C35.4661 19.6797 35.536 19.5913 35.5686 19.5168C35.6058 19.4423 35.6198 19.3259 35.6058 19.2561C35.5919 19.1816 35.5267 19.0745 35.4615 19.0093C35.3839 18.9317 35.2954 18.8929 35.196 18.8929C35.1122 18.8929 35.0005 18.9209 34.9492 18.9488C34.898 18.9767 34.8328 19.0373 34.8002 19.0745ZM15.5774 21.6769V32.4171H16.4622V21.6769C16.2154 21.4581 16.1083 21.4069 16.0198 21.4069C15.9313 21.4069 15.8242 21.4581 15.7311 21.5419L15.5774 21.6769ZM34.7164 21.6769V32.4171L35.6244 32.4404C35.6244 22.9385 35.6105 21.7514 35.5639 21.6583C35.5313 21.5885 35.4475 21.5047 35.3776 21.4721C35.3078 21.4348 35.196 21.4069 35.1355 21.4069C35.0703 21.4069 34.9492 21.4674 34.8654 21.5419L34.7164 21.6769ZM16.9977 24.1071H34.1809V23.2225H16.9977V24.1071ZM17.021 29.5307L19.0001 29.554V24.6657H16.9977L17.021 29.5307ZM19.5589 29.554H21.5147V24.6657H19.5589V29.554ZM22.0735 29.554L24.0526 29.5307L24.0759 24.6657H22.0735V29.554ZM24.6114 29.5307L26.5905 29.554V24.6657H24.5881L24.6114 29.5307ZM27.1493 29.554H29.1051V24.6657H27.1493V29.554ZM29.6639 29.554L31.643 29.5307L31.6663 24.6657H29.6639V29.554ZM32.2018 29.5307L34.1809 29.554V24.6657H32.1785L32.2018 29.5307ZM16.9884 30.9087L16.9977 31.6955H34.1809V30.0661C20.9093 30.0661 17.0396 30.08 17.021 30.094C16.9977 30.1126 16.9837 30.4804 16.9884 30.9087ZM18.5344 11.1183C18.5996 11.1183 18.6881 11.1555 18.7347 11.1974C18.7766 11.244 18.8138 11.3325 18.8138 11.3976C18.8138 11.4814 18.6881 11.6351 18.3808 11.9423C18.0688 12.2542 17.9151 12.3753 17.8313 12.3706C17.7707 12.3706 17.6822 12.3334 17.6357 12.2915C17.5891 12.2449 17.5565 12.1611 17.5612 12.096C17.5705 12.0261 17.7288 11.8259 17.9989 11.5513C18.3062 11.2347 18.4553 11.1183 18.5344 11.1183ZM22.1573 11.1183C22.2132 11.1183 22.3017 11.1602 22.3529 11.2114C22.4041 11.2626 22.446 11.3418 22.4414 11.3837C22.4414 11.4302 22.2365 11.6723 21.9897 11.919C21.6823 12.231 21.5054 12.3753 21.4309 12.3753C21.375 12.3753 21.2958 12.3427 21.2586 12.3055C21.2213 12.2636 21.1887 12.1751 21.1934 12.1006C21.198 12.0028 21.3051 11.8678 21.6311 11.542C21.9012 11.2719 22.0968 11.1183 22.1573 11.1183Z" fill="#BF9A45"/>
<rect x="1" y="1" width="51" height="41" rx="2" stroke="#BF9A45" stroke-width="0.5"/>
</svg>
