<svg width="53" height="43" viewBox="0 0 53 43" fill="none" xmlns="http://www.w3.org/2000/svg">
<path fill-rule="evenodd" clip-rule="evenodd" d="M34.1189 9.00055C34.5303 8.99532 34.7571 9.0267 35.1475 9.13133C35.4217 9.20456 35.8384 9.36149 36.0705 9.48181C36.387 9.6492 36.619 9.82183 36.9988 10.1985C37.426 10.6222 37.5368 10.7687 37.7478 11.1924C37.8797 11.4644 38.0326 11.841 38.0854 12.0294C38.1697 12.338 38.175 12.8193 38.2067 22.3869H38.5337C38.7183 22.3922 38.9609 22.4236 39.077 22.4654C39.193 22.5073 39.3776 22.6067 39.4884 22.6851C39.6202 22.7793 39.7468 22.9467 39.847 23.1455C39.9473 23.3547 40 23.5378 40 23.6947C40 23.8255 39.9631 24.0347 39.9209 24.1655C39.8787 24.2963 39.7732 24.4846 39.6941 24.584C39.6097 24.6834 39.4145 24.8299 39.2563 24.9136C39.0137 25.0339 38.9082 25.0548 38.1276 25.0548L37.4841 27.5762C36.9724 29.564 36.7931 30.1865 36.6401 30.4952C36.503 30.7724 36.3342 30.9973 36.0758 31.2589C35.8331 31.4943 35.5694 31.6931 35.3321 31.8134C35.1264 31.918 34.831 32.0383 34.6728 32.0854C34.5145 32.1325 34.3035 32.1691 34.2086 32.1691C34.1189 32.1691 34.0293 32.19 34.0134 32.2214C33.9976 32.2528 34.1084 32.5144 34.2561 32.8073C34.4354 33.163 34.5251 33.4089 34.5251 33.5292C34.5198 33.6547 34.4776 33.7541 34.3721 33.8588C34.293 33.9372 34.1822 34 34.1295 34C34.082 34 33.9923 33.9791 33.9343 33.9477C33.871 33.9163 33.6548 33.5449 32.9849 32.2214H20.4843L20.0887 33.0061C19.8725 33.435 19.6404 33.8378 19.5718 33.8954C19.5086 33.9529 19.3872 34 19.2976 34C19.2079 34 19.0866 33.9477 19.018 33.8797C18.9442 33.8064 18.902 33.7018 18.902 33.592C18.902 33.4978 19.0233 33.1839 19.1921 32.8492C19.3503 32.5301 19.4822 32.2685 19.4822 32.258C19.4822 32.2528 19.287 32.2267 19.0497 32.2057C18.807 32.1848 18.4906 32.1325 18.3482 32.0959C18.2005 32.054 17.9789 31.9756 17.8471 31.918C17.7152 31.8605 17.4673 31.7088 17.2933 31.5832C17.1192 31.4577 16.8924 31.2484 16.7869 31.1229C16.6814 30.9921 16.5232 30.7672 16.4388 30.6259C16.3544 30.4795 16.2331 30.2127 16.1698 30.0244C16.1118 29.836 15.79 28.6433 14.867 25.0548H14.445C14.0864 25.0548 13.9809 25.0339 13.7382 24.9136C13.58 24.8299 13.3849 24.6834 13.3005 24.584C13.2213 24.4846 13.1106 24.2806 13.0684 24.1394C13.0104 23.972 12.9893 23.7837 13.0051 23.6163C13.0209 23.4698 13.1 23.2344 13.1844 23.0775C13.2688 22.9258 13.4218 22.7427 13.522 22.6694C13.6222 22.6014 13.8015 22.5073 13.9176 22.4654C14.0336 22.4236 14.1918 22.3922 14.271 22.3869C14.3765 22.3869 14.4187 22.3608 14.4187 22.2928C14.4187 22.2457 14.4978 22.0417 14.598 21.8377C14.7193 21.5918 14.8723 21.3878 15.0621 21.2152C15.2151 21.0792 15.4314 20.917 15.5368 20.8647C15.6476 20.8072 15.8744 20.7287 16.0379 20.6868C16.2067 20.645 16.4757 20.6084 16.6339 20.6084C16.808 20.6084 17.0981 20.6659 17.3566 20.7548C17.7574 20.8856 17.7943 20.8909 17.8207 20.8019C17.8365 20.7548 17.9842 20.5718 18.1477 20.4044C18.364 20.1847 18.5644 20.0434 18.8229 19.9283C19.0971 19.8028 19.2976 19.7505 19.5877 19.7348C19.8778 19.7139 20.0729 19.7295 20.3261 19.8028C20.516 19.8551 20.8008 19.9859 20.959 20.0905C21.1173 20.1951 21.3177 20.352 21.4074 20.4462C21.5023 20.5456 21.6184 20.6084 21.6975 20.6084C21.7713 20.6084 21.9454 20.6398 22.0931 20.6816C22.2355 20.7182 22.4623 20.8019 22.5941 20.8699C22.726 20.9379 22.9475 21.1001 23.0899 21.2309C23.2271 21.3617 23.4011 21.5657 23.4697 21.6807C23.5383 21.7958 23.6279 21.9998 23.7545 22.3869H37.31L37.2836 12.4217L37.1676 12.0817C37.1043 11.8933 36.9619 11.5899 36.8511 11.4069C36.7404 11.2238 36.4977 10.9308 36.3078 10.753C36.0969 10.5542 35.812 10.3554 35.5694 10.2351C35.3532 10.1252 35.0103 10.0049 34.8046 9.96307C34.5989 9.92122 34.3141 9.8846 34.1717 9.8846C34.024 9.8846 33.7444 9.92122 33.5387 9.9683C33.333 10.0102 33.0482 10.1095 32.9058 10.188C32.7581 10.2665 32.5102 10.46 32.352 10.617C32.1937 10.7791 31.9775 11.0721 31.872 11.2708C31.7665 11.4749 31.6452 11.7783 31.5977 11.9509C31.5502 12.1235 31.508 12.3432 31.4975 12.4374C31.4817 12.6048 31.4922 12.6152 31.7507 12.6989C31.8931 12.746 32.1199 12.8559 32.2412 12.9448C32.3678 13.0337 32.5629 13.2011 32.6737 13.3267C32.7898 13.447 32.9374 13.6562 33.006 13.7922C33.0746 13.9335 33.159 14.1689 33.1906 14.3154C33.2223 14.4671 33.2486 14.6763 33.2486 14.7757C33.2486 14.896 33.2064 15.0111 32.9955 15.2465L31.2074 15.2622C30.2263 15.2726 29.3244 15.2674 29.1978 15.2517C29.0607 15.2308 28.9341 15.1733 28.8708 15.1C28.7917 15.0163 28.7653 14.9117 28.7653 14.7234C28.7653 14.5769 28.8075 14.3101 28.8655 14.1218C28.9235 13.9335 29.066 13.651 29.1767 13.4941C29.2928 13.3371 29.5196 13.1122 29.6883 12.9971C29.8571 12.882 30.1156 12.746 30.5323 12.61L30.6483 12.0712C30.7063 11.773 30.8013 11.4278 30.8487 11.297C30.8962 11.1662 31.0175 10.9099 31.123 10.7216C31.2338 10.528 31.4869 10.2142 31.7138 9.984C31.9986 9.70152 32.2254 9.53412 32.5102 9.39811C32.7265 9.28826 33.0588 9.15748 33.2486 9.10517C33.4702 9.0424 33.7761 9.00578 34.1189 9.00055ZM30.3213 13.6667C30.2105 13.7295 30.0365 13.8812 29.9415 14.0015C29.8466 14.127 29.7675 14.2473 29.7675 14.2787C29.7675 14.3101 30.2263 14.331 31.0333 14.331H32.2992C32.1146 13.9963 31.988 13.8446 31.9036 13.7818C31.8192 13.7138 31.6716 13.6301 31.5872 13.5882C31.5028 13.5411 31.334 13.4993 31.2179 13.4836C31.1019 13.4731 30.9015 13.4784 30.7696 13.5045C30.6378 13.5307 30.4373 13.5987 30.3213 13.6667ZM18.9916 20.8804C18.8862 20.9641 18.7385 21.1158 18.6699 21.2204C18.6013 21.3303 18.5064 21.5447 18.4589 21.6912C18.4115 21.8534 18.3271 21.9998 18.2585 22.0469C18.1899 22.0888 18.0739 22.1254 17.9948 22.1254C17.8998 22.1254 17.7469 22.0417 17.5728 21.9005C17.4198 21.7749 17.1614 21.6337 17.0032 21.5814C16.8238 21.5186 16.6234 21.4924 16.4757 21.5081C16.3438 21.5186 16.1223 21.5866 15.9746 21.6598C15.8111 21.7383 15.6529 21.8743 15.5421 22.0208C15.4472 22.1515 15.3681 22.2876 15.3681 22.3189C15.3681 22.3713 16.154 22.3869 19.113 22.3869H22.8579C22.6733 22.0469 22.5203 21.8691 22.399 21.7749C22.2724 21.6807 22.0825 21.5814 21.977 21.55C21.8663 21.5238 21.6395 21.4977 21.4759 21.4977C21.2228 21.4977 21.1542 21.4767 21.0698 21.3773C21.0118 21.3146 20.8852 21.1733 20.7903 21.0582C20.6953 20.9484 20.5213 20.8072 20.4052 20.7496C20.2892 20.6921 20.0518 20.6345 19.8778 20.6241C19.7037 20.6136 19.4769 20.6345 19.3767 20.6711C19.2712 20.7078 19.1024 20.8019 18.9916 20.8804ZM13.9387 23.5378C13.907 23.611 13.8965 23.7313 13.9123 23.8098C13.9281 23.8935 13.9914 24.0034 14.0494 24.0609C14.1549 24.1655 14.2235 24.1655 26.4973 24.1655C38.771 24.1655 38.8396 24.1655 38.9451 24.0609C39.0031 24.0034 39.0664 23.8935 39.0822 23.8098C39.0981 23.7313 39.0875 23.611 39.0559 23.5378C39.0242 23.4646 38.9398 23.3756 38.866 23.339C38.7605 23.2919 36.1865 23.2762 26.4814 23.2815C17.1667 23.2815 14.2077 23.2972 14.1127 23.3442C14.0494 23.3809 13.9703 23.4646 13.9387 23.5378ZM16.4282 27.4088C16.7922 28.8317 17.0717 29.8099 17.1719 30.0244C17.2722 30.2388 17.4409 30.469 17.6308 30.6521C17.7943 30.8143 18.0633 31.0078 18.2268 31.0863C18.3956 31.1647 18.6805 31.2484 18.8598 31.2798C19.0708 31.3112 21.9401 31.3321 26.55 31.3321C31.1125 31.3321 34.0293 31.3112 34.2244 31.2798C34.3985 31.2537 34.6938 31.1543 34.8837 31.0601C35.0789 30.966 35.3426 30.7724 35.4903 30.6207C35.6327 30.4742 35.8173 30.2284 35.8964 30.0714C35.9967 29.8779 36.2076 29.0932 36.5663 27.5919C36.8511 26.3835 37.099 25.3164 37.1201 25.2222L37.1518 25.0548C20.6373 25.0548 15.8428 25.0705 15.8428 25.0914C15.8428 25.1176 16.1065 26.1586 16.4282 27.4088ZM29.1714 16.1619C29.2664 16.1619 29.393 16.1829 29.451 16.2142C29.509 16.2404 29.5829 16.3555 29.6145 16.4601C29.6461 16.57 29.662 16.7478 29.6409 16.8524C29.6198 16.9832 29.5565 17.0878 29.4668 17.1611C29.3561 17.2448 29.2717 17.2605 29.1345 17.2395C29.0343 17.2238 28.9077 17.1558 28.855 17.0931C28.7917 17.0146 28.76 16.8734 28.7548 16.6903C28.7442 16.4549 28.7653 16.3816 28.8708 16.2822C28.9499 16.2038 29.0554 16.1619 29.1714 16.1619ZM30.97 16.1619C31.0808 16.1567 31.218 16.1985 31.2865 16.2509C31.3709 16.3136 31.4184 16.4183 31.4395 16.5804C31.4606 16.7321 31.4448 16.8786 31.3973 16.9884C31.3551 17.0826 31.2654 17.182 31.1916 17.2134C31.1177 17.2448 30.9964 17.2552 30.9173 17.2395C30.8329 17.2238 30.7221 17.1611 30.6641 17.1035C30.585 17.0251 30.5586 16.9257 30.5534 16.7164C30.5481 16.502 30.5745 16.4078 30.6641 16.2979C30.7485 16.1985 30.8276 16.1619 30.97 16.1619ZM32.8003 16.1619C32.9269 16.1619 33.0271 16.2038 33.1168 16.2927C33.217 16.3921 33.2486 16.4758 33.2486 16.6589C33.2486 16.7897 33.217 16.9518 33.1853 17.0251C33.1484 17.0983 33.0588 17.182 32.9849 17.2134C32.9111 17.2448 32.7898 17.2552 32.7106 17.2395C32.6262 17.2238 32.5155 17.1558 32.4575 17.0878C32.3783 17.0041 32.352 16.9047 32.352 16.6955C32.3572 16.4758 32.3836 16.3921 32.4838 16.2927C32.5735 16.2038 32.6684 16.1619 32.8003 16.1619ZM29.2084 17.9405C29.298 17.9405 29.4246 17.9876 29.4879 18.0451C29.5565 18.1027 29.625 18.2387 29.6409 18.3433C29.662 18.4532 29.662 18.6572 29.6461 18.8036C29.625 18.9972 29.5881 19.0966 29.4826 19.1803C29.4088 19.2483 29.2769 19.3006 29.1873 19.3006C29.087 19.3006 28.9816 19.2535 28.8972 19.1698C28.7759 19.0495 28.7653 18.9972 28.76 18.5996C28.7548 18.1759 28.76 18.155 28.9024 18.0504C28.9816 17.9876 29.1187 17.9405 29.2084 17.9405ZM30.9806 17.9405C31.065 17.9405 31.1758 17.9562 31.2232 17.9771C31.2707 18.0033 31.3445 18.0817 31.3815 18.1602C31.4237 18.2439 31.4553 18.4584 31.4553 18.6467C31.4553 18.9501 31.4395 19.0024 31.3023 19.1437C31.1969 19.2483 31.0966 19.3006 30.9859 19.3006C30.8804 19.3006 30.7749 19.2535 30.6905 19.1698C30.5692 19.0495 30.5586 18.9972 30.5586 18.6206C30.5639 18.2439 30.5797 18.1811 30.6905 18.0713C30.7696 17.9876 30.8751 17.9405 30.9806 17.9405ZM32.8003 17.9405C32.9269 17.9405 33.0271 17.9824 33.1168 18.0713C33.2328 18.1864 33.2486 18.2491 33.2486 18.5682C33.2486 18.767 33.2223 18.9867 33.1853 19.0495C33.1537 19.1175 33.0904 19.196 33.0429 19.2326C32.9955 19.2692 32.8794 19.3006 32.7845 19.3006C32.672 19.3006 32.5717 19.257 32.4838 19.1698C32.3625 19.0495 32.352 18.9972 32.352 18.6206C32.3572 18.2439 32.3731 18.1811 32.4838 18.0713C32.5735 17.9824 32.6684 17.9405 32.8003 17.9405ZM29.2664 19.9545C29.3508 19.9702 29.4668 20.0277 29.5196 20.0748C29.5723 20.1219 29.625 20.2474 29.6461 20.3468C29.662 20.4462 29.6461 20.6188 29.6145 20.7235C29.5829 20.8333 29.509 20.9432 29.451 20.9745C29.393 21.0007 29.2664 21.0269 29.1714 21.0269C29.0712 21.0269 28.9552 20.9798 28.8813 20.9065C28.7864 20.8124 28.7653 20.7339 28.7653 20.5037C28.7653 20.3468 28.7917 20.1794 28.8286 20.1323C28.8655 20.0853 28.9446 20.0173 29.0027 19.9859C29.0607 19.9545 29.182 19.9388 29.2664 19.9545ZM31.0597 19.9545C31.1441 19.9702 31.2654 20.0329 31.3234 20.0905C31.4078 20.169 31.4289 20.2631 31.4289 20.509C31.4289 20.7862 31.4131 20.8385 31.2971 20.9275C31.2179 20.9902 31.0861 21.0321 30.9806 21.0269C30.8646 21.0269 30.7538 20.9798 30.6747 20.9065C30.5797 20.8124 30.5586 20.7339 30.5586 20.5037C30.5586 20.3468 30.585 20.1794 30.6219 20.1323C30.6589 20.0853 30.738 20.0173 30.796 19.9859C30.854 19.9545 30.9753 19.9388 31.0597 19.9545ZM32.7898 19.9283C32.8372 19.9283 32.9374 19.9597 33.0113 19.9911C33.0851 20.0277 33.1642 20.1114 33.1959 20.1742C33.2223 20.2422 33.2486 20.3939 33.2486 20.5142C33.2539 20.6607 33.217 20.7915 33.1431 20.8804C33.0535 21.0007 32.9955 21.0269 32.8003 21.0269C32.6051 21.0269 32.5471 21.0007 32.4575 20.8804C32.3783 20.781 32.352 20.6607 32.352 20.4776C32.352 20.3311 32.3836 20.1794 32.4205 20.1323C32.4575 20.0905 32.5313 20.0225 32.5893 19.9911C32.6473 19.9597 32.737 19.9283 32.7845 19.9283H32.7898Z" fill="#BF9A45"/>
<rect x="1" y="1" width="51" height="41" rx="2" stroke="#BF9A45" stroke-width="0.5"/>
</svg>
