<svg width="53" height="43" viewBox="0 0 53 43" fill="none" xmlns="http://www.w3.org/2000/svg">
<path fill-rule="evenodd" clip-rule="evenodd" d="M14.4759 8C14.65 8 14.9576 8.29167 21.6317 15H32.3683L35.8562 11.5C38.9786 8.37333 39.3674 8 39.5299 8C39.646 8 39.7621 8.0525 39.8549 8.14583C39.9478 8.23917 40 8.35583 40 8.48417C40 8.65333 39.6924 8.98 33.0357 15.6708V29.2625L33.9643 30.1958V24.6542C33.9701 20.4192 33.9875 19.0833 34.0397 18.99C34.0804 18.92 34.8812 18.2025 35.8214 17.3975C37.1737 16.2367 37.5683 15.9275 37.696 15.9333C37.783 15.9333 37.9165 15.9975 38.1429 16.225V34.3958L38.6071 34.8625C38.9902 35.2475 39.0656 35.3642 39.0714 35.5158C39.0714 35.6442 39.025 35.755 38.9263 35.8542C38.8335 35.9514 38.7232 36 38.5955 36C38.4214 36 38.1429 35.7375 32.3683 29.9333H21.6549L18.6254 32.9667C15.9616 35.6325 15.5728 36 15.4219 36C15.329 35.9942 15.2071 35.965 15.1549 35.9242C15.1027 35.8833 15.033 35.7958 14.9982 35.72C14.9576 35.65 14.9286 35.5333 14.9286 35.4575C14.9286 35.3642 15.7585 34.495 20.9643 29.2625V15.6708L17.5634 12.2583C15.6946 10.38 14.1277 8.77583 14.0812 8.6825C14.0348 8.595 14 8.4725 14 8.40833C14.0058 8.33833 14.0696 8.22167 14.1451 8.14583C14.2379 8.04667 14.3482 8 14.4759 8V8ZM21.8929 29H23.75V18.5583L24.0344 18.2667H29.9598L30.25 18.5583V29H32.1071V15.9333H21.8929V29ZM34.8987 19.4042L34.8929 31.1292L37.2143 33.4625C37.2143 21.055 37.2085 17.45 37.1969 17.45C37.1853 17.45 36.6629 17.8875 36.0362 18.4242L34.8987 19.4042ZM24.6844 29H29.3272V19.2H24.6844V29ZM27 8.46667C27.1103 8.46667 27.2321 8.525 27.325 8.6125C27.4585 8.7525 27.4701 8.79917 27.4643 9.95417L27.65 10.0417C27.7545 10.0942 27.9286 10.24 28.0446 10.3683C28.1607 10.5025 28.2826 10.7125 28.3232 10.835C28.3638 10.9633 28.3929 11.1558 28.3929 11.2667C28.3929 11.3833 28.3638 11.5758 28.3232 11.7042C28.2826 11.85 28.1433 12.0542 27.9634 12.235C27.7835 12.4158 27.5804 12.5558 27.4411 12.5967C27.3134 12.6375 27.1161 12.6667 27.0058 12.6667C26.8897 12.6667 26.6982 12.6375 26.5705 12.5967C26.4254 12.5558 26.2223 12.4158 26.0424 12.235C25.8683 12.0542 25.7232 11.85 25.6826 11.7042C25.642 11.5758 25.6129 11.3833 25.6129 11.2667C25.6129 11.1558 25.6478 10.9633 25.6826 10.835C25.7232 10.7125 25.8509 10.5025 25.9612 10.3683C26.0772 10.24 26.2571 10.0942 26.5415 9.95417V9.35917C26.5473 8.79917 26.5531 8.74667 26.6866 8.6125C26.7737 8.525 26.8897 8.46667 27 8.46667ZM26.5415 11.2667C26.5415 11.3833 26.5938 11.4942 26.6866 11.5875C26.7737 11.6808 26.8955 11.7333 27.0058 11.7333C27.1161 11.7333 27.2379 11.6808 27.325 11.5875C27.4121 11.5 27.4701 11.3775 27.4701 11.2667C27.4701 11.1617 27.4121 11.0392 27.325 10.9458C27.2321 10.8583 27.1103 10.8 27 10.8C26.8897 10.8 26.7737 10.8583 26.6866 10.9458C26.5996 11.0333 26.5415 11.1617 26.5415 11.2667ZM19.229 26.76C19.3045 26.7775 19.4263 26.8475 19.4902 26.9058C19.5946 27.0167 19.6062 27.11 19.6179 28.3058C19.6295 29.2392 19.6121 29.6242 19.5598 29.7233C19.5192 29.7992 18.5848 30.6975 17.4879 31.7183C16.3853 32.7333 15.4277 33.5908 15.3522 33.62C15.2826 33.6492 15.1781 33.655 15.1201 33.6317C15.0679 33.6083 14.9576 33.5383 14.7545 33.3458V31.205C14.7603 29.245 14.7661 29.0525 14.8589 28.9592C14.917 28.9008 15.7179 28.4633 16.6464 27.985C17.5692 27.5067 18.4978 27.0283 18.7067 26.9233C18.9679 26.7833 19.1246 26.7308 19.229 26.76ZM15.7179 29.5133L15.6888 32.0917C16.217 31.6192 16.8902 30.995 17.5344 30.4L18.7009 29.3208C18.7067 28.3058 18.6835 28.0142 18.6603 28.0142C18.6371 28.0142 17.9638 28.3525 17.1687 28.7667L15.7179 29.5133ZM28.3929 23.8667C28.5031 23.8667 28.625 23.9192 28.7179 24.0125C28.8049 24.1 28.8629 24.2225 28.8629 24.3333C28.8629 24.4383 28.8049 24.5608 28.7179 24.6542C28.6308 24.7475 28.5089 24.8 28.3987 24.8C28.2884 24.8 28.1665 24.7417 28.0795 24.6542C27.9866 24.5608 27.9344 24.4442 27.9344 24.3275C27.9344 24.2225 27.9924 24.0942 28.0795 24.0067C28.1665 23.9192 28.2826 23.8667 28.3929 23.8667Z" fill="#BF9A45"/>
<rect x="1" y="1" width="51" height="41" rx="2" stroke="#BF9A45" stroke-width="0.5"/>
</svg>
