<svg width="53" height="43" viewBox="0 0 53 43" fill="none" xmlns="http://www.w3.org/2000/svg">
<path fill-rule="evenodd" clip-rule="evenodd" d="M18.9517 7.00063C19.3175 6.99312 19.8443 7.05322 20.2321 7.13586C20.5907 7.2185 21.1248 7.36876 21.4028 7.48145C21.6809 7.58663 22.1492 7.81953 22.4272 7.99232C22.7053 8.1576 23.1516 8.48817 23.415 8.72106C23.6784 8.95396 24.0589 9.35965 24.2638 9.63011C24.4686 9.89306 24.7321 10.2837 24.8564 10.4866C24.9735 10.6969 25.1784 11.1026 25.2955 11.3881C25.4198 11.6811 25.5881 12.222 25.6686 12.5901C25.7564 12.9583 25.8442 13.4241 25.9028 13.98L26.2906 14.0551C26.4954 14.1002 26.8686 14.2279 27.1101 14.3481C27.3515 14.4608 27.7247 14.7088 27.9442 14.8891C28.1564 15.0694 28.4783 15.4375 28.6466 15.708C28.8222 15.9784 29.0344 16.4142 29.1222 16.6846C29.232 17.0077 29.2978 17.4434 29.3271 17.9618C29.3637 18.698 29.3564 18.7581 29.21 18.9234C29.0564 19.0812 28.9905 19.0887 27.1101 19.0812L27.0003 19.3291C26.9418 19.4644 26.8101 19.6747 26.7076 19.7949C26.6052 19.9151 26.4296 20.0654 26.3052 20.1255C26.1808 20.1856 25.9686 20.2682 25.8296 20.2983C25.6906 20.3283 25.4272 20.3283 25.2442 20.2908C25.0613 20.2457 24.7833 20.1255 24.6223 20.0053C24.4613 19.8851 24.2491 19.6371 23.9638 19.0887H22.9248C21.937 19.0887 21.8711 19.0812 21.7175 18.9234C21.5711 18.7657 21.5638 18.698 21.6004 17.9618C21.6224 17.3983 21.6882 17.0227 21.8126 16.6471C21.915 16.3616 22.1419 15.9033 22.3248 15.6328C22.515 15.3624 22.837 15.0018 23.0565 14.829C23.276 14.6562 23.6345 14.4308 23.854 14.3256C24.0735 14.2204 24.4321 14.1002 25.0247 13.98L24.9808 13.6269C24.9589 13.4241 24.8857 13.0484 24.8272 12.778C24.7613 12.5075 24.6223 12.0718 24.5125 11.8013C24.4101 11.5308 24.1687 11.0726 23.9857 10.7871C23.8028 10.5016 23.5101 10.0959 23.3345 9.89306C23.1589 9.69021 22.8004 9.35965 22.537 9.1568C22.2736 8.95396 21.8272 8.66847 21.5492 8.52573C21.2711 8.38299 20.7736 8.19517 20.4516 8.11253C20.0346 7.99983 19.6395 7.95476 19.0614 7.94725C18.5248 7.94725 18.0858 7.99232 17.7444 8.08248C17.4663 8.15009 16.998 8.32288 16.72 8.4506C16.442 8.58583 16.0468 8.8037 15.842 8.94645C15.6444 9.08919 15.2859 9.3897 15.0444 9.61508C14.8103 9.84798 14.4737 10.2386 14.3054 10.4866C14.1371 10.7345 13.8957 11.1402 13.7786 11.3881C13.6542 11.636 13.4859 12.0567 13.4054 12.3272C13.3176 12.5977 13.2152 13.0184 13.1713 13.2663C13.1201 13.5668 13.0981 17.2255 13.0981 35.091L16.5663 35.1285L16.6834 35.3314C16.7859 35.5192 16.7785 35.5492 16.4859 35.9549L12.9079 35.9775C9.40305 35.9925 9.32988 35.9925 9.16891 35.8422C9.07379 35.7596 9.00062 35.6168 9.00062 35.5267C8.9933 35.429 9.05184 35.2938 9.12501 35.2262C9.24208 35.1135 9.45427 35.091 12.1835 35.0534L12.2201 24.0847C12.2567 15.6854 12.2859 13.0334 12.3518 12.778C12.403 12.5901 12.5128 12.222 12.6006 11.9516C12.681 11.6811 12.8493 11.2604 12.9737 11.0125C13.0908 10.7645 13.3249 10.3589 13.4932 10.1109C13.6542 9.86301 13.9908 9.44229 14.2396 9.17183C14.4883 8.90137 14.9273 8.5107 15.2273 8.30035C15.5273 8.08999 15.9371 7.82704 16.1346 7.72937C16.3395 7.6242 16.6834 7.48145 16.9029 7.40632C17.1224 7.3312 17.5395 7.21099 17.8175 7.13586C18.1029 7.06825 18.6078 7.00815 18.9517 7.00063ZM24.0369 15.2346C23.876 15.3248 23.6126 15.5126 23.4516 15.6554C23.2906 15.7981 23.0565 16.0986 22.9248 16.3165C22.7931 16.5419 22.6394 16.925 22.5736 17.1729C22.515 17.4209 22.4638 17.7514 22.4638 17.9092V18.1872H28.4637C28.4637 17.7514 28.4125 17.4209 28.3539 17.1729C28.2881 16.925 28.1344 16.5419 28.0027 16.3165C27.871 16.0986 27.6369 15.7981 27.4759 15.6554C27.3149 15.5051 26.971 15.2872 26.7076 15.1595C26.3052 14.9567 26.1296 14.9191 25.5735 14.9041C25.1711 14.8891 24.8052 14.9191 24.6223 14.9792C24.4613 15.0393 24.1979 15.152 24.0369 15.2346ZM25.2808 19.3517C25.5077 19.4493 25.5662 19.4493 25.793 19.3517C25.932 19.2916 26.0637 19.2089 26.0857 19.1638C26.1076 19.1188 25.9028 19.0887 25.5296 19.0887C25.1564 19.0887 24.9516 19.1188 24.9808 19.1638C25.0028 19.2089 25.1418 19.2916 25.2808 19.3517ZM26.2686 23.2433C30.432 23.2583 30.71 23.2658 30.9515 23.4011C31.0905 23.4762 31.2954 23.6264 31.61 23.9345L31.8149 23.7391C31.9246 23.6264 32.1295 23.4762 32.2685 23.4011C32.51 23.2658 32.7734 23.2583 37.0611 23.2583C41.5464 23.2583 41.5976 23.2583 41.8903 23.4161C42.0513 23.5062 42.2927 23.7091 42.4318 23.8668C42.5708 24.0321 42.7317 24.28 42.7976 24.4228C42.8854 24.6331 42.9147 25.0464 42.9293 26.3987C42.9513 28.044 42.9586 28.1041 43.0976 28.1041C43.1781 28.1041 43.4195 28.1717 43.6317 28.2468C43.8512 28.337 44.1512 28.5323 44.3415 28.7201C44.5171 28.9004 44.7293 29.1934 44.8171 29.3812C44.9561 29.7043 44.9634 29.8771 45 35.692L44.839 35.8422C44.6781 35.985 44.5756 35.9925 42.8415 36C41.0635 36 41.0049 35.9925 40.8659 35.8347C40.7781 35.7371 40.705 35.5267 40.6464 34.9407H22.6101V35.2637C22.6175 35.4666 22.5662 35.6544 22.3175 35.9925H18.5858L18.4322 35.7896C18.2858 35.5868 18.2858 35.5117 18.3297 29.7193L18.5127 29.3512C18.6151 29.1483 18.8639 28.8328 19.0614 28.645C19.3102 28.4271 19.5663 28.2769 20.2687 28.0665V24.6857L20.4663 24.28C20.5833 24.0547 20.7882 23.7767 20.9272 23.6565C21.0663 23.5363 21.3297 23.3935 21.5126 23.3334C21.7833 23.2508 22.6321 23.2283 26.2686 23.2433ZM21.3077 24.5881C21.1541 24.8285 21.1468 24.9111 21.1468 26.5489V28.2543C21.4028 28.3069 21.6443 28.4647 21.8419 28.6525C22.0614 28.8478 22.2736 29.1258 22.3687 29.3512C22.4492 29.554 22.5443 29.8771 22.5662 30.0799L22.6101 30.433H31.171L31.1344 24.7383C30.849 24.4228 30.6807 24.2876 30.571 24.2275C30.4027 24.1373 29.6271 24.1223 26.1442 24.1223C22.6687 24.1298 21.8784 24.1448 21.6882 24.235C21.5711 24.2951 21.3955 24.4528 21.3077 24.5881ZM32.1953 24.6707C32.0563 24.8961 32.049 25.0464 32.049 27.6758V30.433H40.683C40.7415 30.1701 40.7562 30.0123 40.7562 29.9071C40.7562 29.8019 40.822 29.5841 40.8879 29.4188C40.961 29.2535 41.1367 28.9906 41.2757 28.8253C41.4147 28.6675 41.6488 28.4722 41.7952 28.3971L42.0732 28.2543C42.0366 24.9261 42.0293 24.7984 41.883 24.5956C41.8025 24.4829 41.6196 24.3251 41.4805 24.2575C41.2537 24.1298 40.8879 24.1223 37.0245 24.1223C32.949 24.1223 32.81 24.1298 32.5758 24.2725C32.4514 24.3552 32.2758 24.5355 32.1953 24.6707ZM19.4858 29.4488C19.398 29.5766 19.2809 29.8095 19.2443 29.9672C19.1931 30.14 19.1712 31.1317 19.1858 32.6493L19.2078 35.0534H21.6955C21.7248 31.2294 21.7028 30.1325 21.6589 29.9672C21.615 29.8095 21.498 29.5766 21.3809 29.4413C21.2711 29.3136 21.0736 29.1634 20.9419 29.1033C20.8175 29.0507 20.5833 29.0056 20.4297 29.0056C20.2834 29.0131 20.0492 29.0582 19.9102 29.1108C19.7712 29.1634 19.5809 29.3136 19.4858 29.4488ZM41.9708 29.3662C41.8976 29.4338 41.7879 29.5991 41.7147 29.7193C41.6123 29.9146 41.5976 30.2677 41.5976 32.499V35.0534L44.122 35.091C44.122 30.6058 44.1 30.0048 44.0195 29.817C43.9683 29.6817 43.8293 29.4789 43.7122 29.3662C43.5951 29.2535 43.4122 29.1258 43.2952 29.0882C43.1854 29.0432 42.9732 29.0056 42.8196 29.0056C42.6732 29.0056 42.4464 29.0582 42.3293 29.1258C42.2049 29.1859 42.0513 29.2986 41.9708 29.3662ZM22.6101 34.0392H40.683V31.3346H22.6101V34.0392ZM24.5272 15.6328C24.6004 15.6328 24.7247 15.7004 24.8052 15.7831C24.8857 15.8657 24.9516 16.001 24.9516 16.0836C24.9516 16.1737 24.6955 16.5043 24.3443 16.8724C24.015 17.218 23.693 17.5035 23.6345 17.511C23.576 17.511 23.4516 17.4584 23.3565 17.3983C23.254 17.3307 23.1955 17.2105 23.1955 17.0828C23.1955 16.9551 23.2979 16.7297 23.4516 16.5193C23.5906 16.3165 23.8613 16.0385 24.0516 15.8958C24.2345 15.753 24.454 15.6328 24.5272 15.6328Z" fill="#BF9A45"/>
<rect x="1" y="1" width="51" height="41" rx="2" stroke="#BF9A45" stroke-width="0.5"/>
</svg>
