<svg width="53" height="43" viewBox="0 0 53 43" fill="none" xmlns="http://www.w3.org/2000/svg">
<path fill-rule="evenodd" clip-rule="evenodd" d="M26.5 8C33.4846 8 35.5088 8.01055 35.572 8.06328C35.6195 8.1002 35.6827 8.1793 35.7144 8.24785C35.7618 8.33223 35.7776 9.13906 35.7776 11.1588C35.7776 13.1785 35.7618 13.9854 35.7144 14.075C35.6827 14.1383 35.6195 14.2174 35.572 14.2543C35.5088 14.307 33.4846 14.3176 26.5 14.3176C19.5154 14.3176 17.4912 14.307 17.428 14.2543C17.3805 14.2174 17.3173 14.1383 17.2856 14.075C17.2382 13.9854 17.2224 13.1785 17.2224 11.1588C17.2224 9.13906 17.2382 8.33223 17.2856 8.24258C17.3173 8.1793 17.3805 8.1002 17.428 8.06328C17.4912 8.01055 19.5154 8 26.5 8V8ZM18.0658 13.4791H26.0783V8.83848H18.0658V13.4791ZM26.9217 13.4791H34.9342V8.83848H26.9217V13.4791ZM32.7993 19.3906C32.9153 19.3906 33.163 19.417 33.3528 19.4592C33.5426 19.4961 33.8272 19.5963 33.9854 19.6754C34.1435 19.7598 34.4229 19.9654 34.5968 20.1447C34.8077 20.3504 34.9816 20.5877 35.0871 20.8092C35.1767 20.999 35.2716 21.3207 35.3085 21.5211C35.3401 21.7268 35.3506 21.943 35.3348 22.0115C35.319 22.0748 35.2505 22.175 35.182 22.233C35.1187 22.291 35.008 22.3385 34.9342 22.3438C34.8604 22.3438 34.7444 22.2857 34.6706 22.2172C34.5758 22.1223 34.5283 22.0062 34.502 21.7795C34.4756 21.6055 34.4071 21.3471 34.3385 21.2047C34.27 21.057 34.1224 20.8461 34.0064 20.7354C33.8957 20.6193 33.6691 20.4664 33.5109 20.3926C33.279 20.2818 33.1367 20.2555 32.8257 20.2555C32.5146 20.2555 32.3723 20.2818 32.1404 20.3926C31.9822 20.4664 31.7556 20.6193 31.6449 20.7354C31.5289 20.8461 31.376 21.0729 31.3022 21.2311C31.2179 21.4209 31.1599 21.6582 31.1125 22.3385H31.4024C31.6185 22.3385 31.7239 22.3648 31.8135 22.4439C31.8768 22.502 31.9453 22.6021 31.9611 22.6654C31.977 22.734 31.9611 22.8447 31.9242 22.9186C31.8873 22.9924 31.8241 23.0768 31.7766 23.1137C31.7292 23.1506 31.5658 23.1822 31.1388 23.1822V24.026L39.7048 24.0207L40 24.316L39.9947 29.4734C39.9947 33.2809 39.9789 34.6572 39.9315 34.7469C39.8998 34.8102 39.8366 34.8893 39.7891 34.9262C39.7206 34.9789 36.795 34.9947 13.2952 35L13 34.7047V24.316L13.2847 24.026L16.6689 24.0207L16.379 23.4195V22.0115C16.379 21.0412 16.4 20.5613 16.4422 20.4822C16.4738 20.4137 16.5371 20.3346 16.5845 20.2977C16.6478 20.2502 17.4543 20.2344 19.9635 20.2344C22.4727 20.2344 23.2792 20.2502 23.3424 20.2977C23.3899 20.3346 23.4531 20.4137 23.4848 20.4822C23.5269 20.5613 23.548 21.0412 23.548 23.4195L23.2581 24.0207L30.2954 24.026V22.8764C30.2954 22.117 30.3217 21.616 30.3692 21.3893C30.4061 21.1994 30.5062 20.9146 30.5853 20.7564C30.6697 20.5982 30.8752 20.324 31.0545 20.1447C31.2337 19.9654 31.5078 19.7545 31.666 19.6754C31.8241 19.5963 32.0982 19.5014 32.2722 19.4645C32.4461 19.4223 32.6833 19.3906 32.7993 19.3906ZM17.2224 22.1539C17.2224 22.9133 17.2435 23.2719 17.2909 23.3668C17.3225 23.4406 17.4069 23.5197 17.4754 23.5514C17.5492 23.583 18.498 23.6041 20.0057 23.6041C21.8137 23.5988 22.4358 23.583 22.499 23.5355C22.5465 23.4986 22.6097 23.4195 22.6414 23.351C22.6835 23.2771 22.7046 22.8711 22.7046 22.1539V21.0729H17.2224V22.1539ZM13.8487 28.2447H19.7526V24.8697C18.6456 24.8697 18.4875 24.8855 18.4875 24.933C18.4928 24.9699 18.4295 25.0648 18.3504 25.1439L18.2081 25.2916C15.4723 25.2916 15.3985 25.2863 15.2878 25.1861C15.2193 25.1281 15.156 25.0332 15.1402 24.9752C15.1138 24.875 15.0717 24.8697 14.4813 24.8697H13.8487V28.2447ZM20.5961 34.151H32.4039V24.8697H20.5961V34.151ZM33.2474 28.2447H39.1513V24.8697C37.9283 24.8697 37.8862 24.875 37.8598 24.9752C37.844 25.0332 37.7807 25.1281 37.7175 25.1861C37.6015 25.2863 37.5277 25.2916 36.1993 25.2969H34.8024C34.5758 25.0701 34.5072 24.9699 34.5125 24.933C34.5125 24.8855 34.3544 24.8697 33.8799 24.8697H33.2474V28.2447ZM13.8487 34.151H19.7526V29.0885H13.8487V34.151ZM33.2474 34.151H39.1513V29.0885H33.2474V34.151ZM18.4822 15.1666C18.5613 15.1613 18.6825 15.2246 18.7669 15.309C18.846 15.3881 18.9145 15.5041 18.9092 15.5621C18.9092 15.6201 18.8881 15.752 18.8565 15.8521C18.8301 15.9523 18.7511 16.1105 18.6878 16.2055C18.6193 16.2951 18.4506 16.4586 18.3135 16.5746C18.1765 16.6854 18.0605 16.8119 18.0605 16.8541C18.0605 16.8963 18.1765 17.0229 18.3135 17.1336C18.4506 17.2443 18.6298 17.4342 18.7142 17.5555C18.7932 17.6768 18.8723 17.8613 18.8881 17.9615C18.9039 18.0617 18.8934 18.241 18.8618 18.357C18.8301 18.473 18.7511 18.6418 18.6878 18.7367C18.6193 18.8264 18.4506 18.9898 18.3135 19.1059C18.1554 19.2271 18.0605 19.3484 18.0658 19.4117C18.0658 19.4697 18.0078 19.5805 17.9287 19.6648C17.8444 19.7439 17.7284 19.8072 17.6494 19.8072C17.5756 19.8072 17.4596 19.7598 17.3963 19.7018C17.3278 19.6437 17.2593 19.5436 17.2435 19.4803C17.2276 19.4117 17.2382 19.2641 17.2698 19.148C17.3014 19.032 17.3805 18.8633 17.4438 18.7684C17.5123 18.6787 17.681 18.5152 17.818 18.3992C17.9551 18.2885 18.0711 18.1619 18.0711 18.1197C18.0711 18.0775 17.9551 17.951 17.818 17.8402C17.681 17.7242 17.5123 17.5607 17.4438 17.4711C17.3805 17.3762 17.3014 17.2074 17.2698 17.0914C17.2382 16.9754 17.2276 16.7961 17.2435 16.6959C17.2593 16.5957 17.3383 16.4111 17.4174 16.2898C17.5018 16.1686 17.6704 15.9893 17.8022 15.8891C17.9551 15.7678 18.0553 15.6465 18.0816 15.541C18.1027 15.4514 18.1712 15.3301 18.2345 15.2721C18.2977 15.2141 18.4084 15.1666 18.4822 15.1666ZM20.5908 15.1666C20.6646 15.1666 20.7806 15.2141 20.8491 15.2721C20.9123 15.3301 20.9809 15.4303 20.9967 15.4988C21.0125 15.5621 21.002 15.7098 20.9703 15.8258C20.9387 15.9418 20.8596 16.1105 20.7964 16.2055C20.7278 16.2951 20.5592 16.4586 20.4221 16.5746C20.285 16.6854 20.1691 16.8119 20.1691 16.8541C20.1691 16.8963 20.285 17.0229 20.4221 17.1336C20.5592 17.2443 20.7384 17.4342 20.8227 17.5555C20.9018 17.6768 20.9809 17.8613 20.9967 17.9615C21.0125 18.0617 21.002 18.241 20.9703 18.357C20.9387 18.473 20.8596 18.6418 20.7964 18.7367C20.7278 18.8264 20.5697 18.9846 20.4379 19.0848C20.285 19.2008 20.1849 19.3273 20.1638 19.4328C20.1374 19.5225 20.0689 19.6437 20.0057 19.7018C19.9371 19.7598 19.8264 19.8072 19.7526 19.8072C19.6788 19.8072 19.5681 19.7598 19.5049 19.7018C19.4364 19.6437 19.3678 19.5436 19.352 19.4803C19.3362 19.4117 19.3467 19.2641 19.3784 19.148C19.41 19.032 19.4891 18.8633 19.5523 18.7684C19.6209 18.6787 19.7895 18.5152 19.9266 18.3992C20.0636 18.2885 20.1796 18.1619 20.1796 18.1197C20.1796 18.0775 20.0636 17.951 19.9266 17.8402C19.7895 17.7242 19.6209 17.5607 19.5523 17.4711C19.4891 17.3762 19.41 17.2074 19.3784 17.0914C19.3467 16.9754 19.3362 16.7961 19.352 16.6959C19.3678 16.5957 19.4469 16.4111 19.526 16.2898C19.6103 16.1686 19.7895 15.9787 19.9266 15.868C20.1005 15.7309 20.1743 15.6307 20.1691 15.5568C20.1638 15.4936 20.2218 15.3828 20.3061 15.3037C20.3852 15.2299 20.5117 15.1666 20.5908 15.1666ZM22.6993 15.1666C22.7731 15.1666 22.8891 15.2141 22.9576 15.2721C23.0209 15.3301 23.0894 15.4303 23.1052 15.4988C23.121 15.5621 23.1105 15.7098 23.0789 15.8258C23.0472 15.9418 22.9682 16.1105 22.9049 16.2055C22.8364 16.2951 22.6677 16.4586 22.5307 16.5746C22.3936 16.6854 22.2776 16.8119 22.2776 16.8541C22.2776 16.8963 22.3936 17.0229 22.5307 17.1336C22.6677 17.2443 22.8469 17.4342 22.9313 17.5555C23.0103 17.6768 23.0894 17.8613 23.1052 17.9615C23.121 18.0617 23.1105 18.241 23.0789 18.357C23.0472 18.473 22.9682 18.6418 22.9049 18.7367C22.8364 18.8264 22.6783 18.9846 22.5465 19.0848C22.3936 19.2008 22.2934 19.3273 22.2724 19.4328C22.246 19.5225 22.1775 19.6437 22.1142 19.7018C22.0457 19.7598 21.935 19.8072 21.8612 19.8125C21.7874 19.8125 21.6661 19.7492 21.5818 19.6648C21.5027 19.5857 21.4342 19.4697 21.4395 19.4117C21.4395 19.3537 21.4606 19.2219 21.4922 19.1217C21.5185 19.0215 21.5976 18.8633 21.6609 18.7684C21.7294 18.6787 21.8981 18.5152 22.0351 18.3992C22.1722 18.2885 22.2882 18.1619 22.2882 18.1197C22.2882 18.0775 22.1722 17.951 22.0351 17.8402C21.8981 17.7242 21.7294 17.5607 21.6609 17.4711C21.5976 17.3762 21.5185 17.2074 21.4869 17.0914C21.4553 16.9754 21.4447 16.7961 21.4606 16.6959C21.4764 16.5957 21.5554 16.4111 21.6345 16.2898C21.7189 16.1686 21.8981 15.9787 22.0351 15.868C22.2091 15.7309 22.2829 15.6307 22.2776 15.5568C22.2724 15.4936 22.3303 15.3828 22.4147 15.3037C22.4938 15.2299 22.6203 15.1666 22.6993 15.1666ZM20.032 10.9479H21.8559C23.2054 10.9531 23.7009 10.9689 23.7642 11.0164C23.8116 11.0533 23.8749 11.1377 23.9118 11.2115C23.9487 11.2854 23.9645 11.3961 23.9487 11.4646C23.9328 11.5279 23.8643 11.6281 23.8011 11.6861C23.6851 11.7916 23.6113 11.7916 20.0426 11.7969L19.895 11.6492C19.8159 11.5701 19.7474 11.4383 19.7421 11.3645C19.7421 11.2748 19.7948 11.1746 19.8844 11.085L20.032 10.9479ZM29.3096 10.9479L31.1335 10.9531C32.483 10.9531 32.9785 10.9689 33.0418 11.0164C33.0892 11.0533 33.1578 11.143 33.1947 11.2115C33.2316 11.2854 33.2474 11.3961 33.2263 11.4646C33.2105 11.5279 33.1419 11.6281 33.0787 11.6914C32.9627 11.7916 32.8889 11.7969 29.3202 11.7969L29.1726 11.6492C29.0935 11.5701 29.025 11.4436 29.025 11.3645C29.0197 11.2801 29.0724 11.1746 29.162 11.0902L29.3096 10.9479ZM21.2971 26.1354H26.4947C30.501 26.1354 31.7134 26.1512 31.7766 26.2039C31.8241 26.2355 31.8926 26.3199 31.9242 26.3832C31.9664 26.4676 31.9875 27.1268 31.9875 28.6666C31.9875 30.2064 31.9664 30.8604 31.9242 30.9447C31.8926 31.0133 31.8241 31.0924 31.7766 31.1293C31.7134 31.1768 30.501 31.1926 21.313 31.1979L21.0178 30.9078L21.0072 26.4096L21.2971 26.1354ZM21.8612 30.3541H31.1388V26.9791H21.8612V30.3541ZM23.8274 32.4635L26.4947 32.4688C28.5084 32.4688 29.1831 32.4846 29.2464 32.532C29.2938 32.5689 29.3624 32.6586 29.394 32.7271C29.4309 32.801 29.4467 32.917 29.4309 32.9803C29.4151 33.0436 29.3465 33.149 29.2833 33.207C29.1673 33.3072 29.0988 33.3125 23.838 33.3125L23.6904 33.1648C23.6113 33.0857 23.5428 32.9592 23.5375 32.8801C23.5375 32.7957 23.5902 32.6902 23.6798 32.6059L23.8274 32.4635Z" fill="#BF9A45"/>
<rect x="1" y="1" width="51" height="41" rx="2" stroke="#BF9A45" stroke-width="0.5"/>
</svg>
