<svg width="30" height="30" viewBox="0 0 30 30" fill="none" xmlns="http://www.w3.org/2000/svg">
<circle cx="15.3846" cy="14.6152" r="13.8462" fill="#F3F3F3"/>
<path fill-rule="evenodd" clip-rule="evenodd" d="M0 15C0 6.71606 6.71606 0 15 0C23.2839 0 30 6.71606 30 15C30 23.2839 23.2839 30 15 30C6.71606 30 0 23.2839 0 15ZM19.4707 24.0634C21.9811 24.0634 24.0229 22.0215 24.0229 19.5111V10.5698C24.0229 8.05967 21.9811 6.01751 19.4707 6.01751H10.5293C8.01923 6.01751 5.97707 8.05967 5.97707 10.5698V19.5111C5.97707 22.0215 8.01923 24.0634 10.5293 24.0634H19.4707ZM19.4707 7.98152H10.5293C9.10213 7.98152 7.94101 9.14264 7.94101 10.5698V19.5112C7.94101 20.9384 9.10213 22.0998 10.5293 22.0998H19.4707C20.8978 22.0998 22.0593 20.9387 22.0593 19.5112V10.5698C22.0593 9.14264 20.8982 7.98152 19.4707 7.98152ZM15 19.6883C12.4374 19.6883 10.3525 17.6034 10.3525 15.0405C10.3525 12.4779 12.4374 10.393 15 10.393C17.5629 10.393 19.6478 12.4779 19.6478 15.0405C19.6478 17.6031 17.5625 19.6883 15 19.6883ZM19.7972 11.3539C19.1906 11.3539 18.6973 10.8606 18.6973 10.2543C18.6973 9.648 19.1906 9.15468 19.7972 9.15468C20.4035 9.15468 20.8968 9.648 20.8968 10.2543C20.8968 10.8606 20.4035 11.3539 19.7972 11.3539ZM15 12.3569C13.5207 12.3569 12.3161 13.5608 12.3161 15.0401C12.3161 16.5201 13.5207 17.7243 15 17.7243C16.48 17.7243 17.6835 16.5201 17.6835 15.0401C17.6835 13.5611 16.4796 12.3569 15 12.3569Z" fill="url(#paint0_linear_53_181)"/>
<path fill-rule="evenodd" clip-rule="evenodd" d="M0 15C0 6.71606 6.71606 0 15 0C23.2839 0 30 6.71606 30 15C30 23.2839 23.2839 30 15 30C6.71606 30 0 23.2839 0 15ZM19.4707 24.0634C21.9811 24.0634 24.0229 22.0215 24.0229 19.5111V10.5698C24.0229 8.05967 21.9811 6.01751 19.4707 6.01751H10.5293C8.01923 6.01751 5.97707 8.05967 5.97707 10.5698V19.5111C5.97707 22.0215 8.01923 24.0634 10.5293 24.0634H19.4707ZM19.4707 7.98152H10.5293C9.10213 7.98152 7.94101 9.14264 7.94101 10.5698V19.5112C7.94101 20.9384 9.10213 22.0998 10.5293 22.0998H19.4707C20.8978 22.0998 22.0593 20.9387 22.0593 19.5112V10.5698C22.0593 9.14264 20.8982 7.98152 19.4707 7.98152ZM15 19.6883C12.4374 19.6883 10.3525 17.6034 10.3525 15.0405C10.3525 12.4779 12.4374 10.393 15 10.393C17.5629 10.393 19.6478 12.4779 19.6478 15.0405C19.6478 17.6031 17.5625 19.6883 15 19.6883ZM19.7972 11.3539C19.1906 11.3539 18.6973 10.8606 18.6973 10.2543C18.6973 9.648 19.1906 9.15468 19.7972 9.15468C20.4035 9.15468 20.8968 9.648 20.8968 10.2543C20.8968 10.8606 20.4035 11.3539 19.7972 11.3539ZM15 12.3569C13.5207 12.3569 12.3161 13.5608 12.3161 15.0401C12.3161 16.5201 13.5207 17.7243 15 17.7243C16.48 17.7243 17.6835 16.5201 17.6835 15.0401C17.6835 13.5611 16.4796 12.3569 15 12.3569Z" fill="url(#paint1_radial_53_181)"/>
<defs>
<linearGradient id="paint0_linear_53_181" x1="6.63077" y1="1.92308" x2="15.0923" y2="17.6923" gradientUnits="userSpaceOnUse">
<stop stop-color="#4A61CA"/>
<stop offset="1" stop-color="#EB4A65"/>
</linearGradient>
<radialGradient id="paint1_radial_53_181" cx="0" cy="0" r="1" gradientUnits="userSpaceOnUse" gradientTransform="translate(7.01538 23.8462) rotate(128.66) scale(17.2392 17.5751)">
<stop stop-color="#FFBF50"/>
<stop offset="0.583333" stop-color="#FC5243"/>
<stop offset="1" stop-color="#FC5243" stop-opacity="0"/>
</radialGradient>
</defs>
</svg>
