<svg width="14" height="16" viewBox="0 0 14 16" fill="none" xmlns="http://www.w3.org/2000/svg">
<g opacity="0.75">
<path d="M13.84 14.2011L9.89011 10.1634C11.6897 7.92518 11.5673 4.60257 9.5223 2.51217C7.34682 0.288344 3.80709 0.288344 1.63161 2.51217C-0.54387 4.73599 -0.54387 8.35439 1.63161 10.5782C3.67603 12.6681 6.926 12.7946 9.11654 10.9542L13.0665 14.9919C13.2801 15.2103 13.6264 15.2103 13.84 14.9919C14.0537 14.7735 14.0536 14.4195 13.84 14.2011ZM8.74876 9.78745C6.99983 11.5753 4.15411 11.5752 2.40518 9.78745C0.656241 7.99965 0.656241 5.0907 2.40518 3.3029C4.15406 1.51518 6.99977 1.51504 8.74876 3.3029C10.4977 5.0907 10.4977 7.99965 8.74876 9.78745Z" fill="#272727"/>
</g>
</svg>
