<svg width="30" height="30" viewBox="0 0 30 30" fill="none" xmlns="http://www.w3.org/2000/svg">
<path d="M0 15C0 23.2843 6.71573 30 15 30C23.2843 30 30 23.2843 30 15C30 6.71573 23.2843 0 15 0C6.71573 0 0 6.71573 0 15Z" fill="#61A8DE"/>
<path d="M22.9273 6.62243L3.456 14.4401C2.82532 14.6934 2.86353 15.6258 3.51274 15.8233L8.46061 17.3287L10.3072 23.3655C10.5001 23.9961 11.2756 24.1873 11.7246 23.7149L14.2828 21.0238L19.3022 24.8197C19.9164 25.2843 20.7912 24.9392 20.9472 24.1707L24.2716 7.7953C24.4344 6.99318 23.6684 6.32489 22.9273 6.62243ZM20.4861 10.2565L11.4418 18.4968C11.3517 18.579 11.2943 18.6926 11.2809 18.8159L10.9327 22.0051C10.9213 22.1091 10.78 22.1229 10.7499 22.023L9.31722 17.2667C9.2516 17.0489 9.33715 16.813 9.52519 16.6928L20.2056 9.86803C20.4512 9.71097 20.7027 10.0593 20.4861 10.2565Z" fill="#F3F3F3"/>
</svg>
