<svg width="30" height="30" viewBox="0 0 30 30" fill="none" xmlns="http://www.w3.org/2000/svg">
<path d="M0 15C0 23.2843 6.71573 30 15 30C23.2843 30 30 23.2843 30 15C30 6.71573 23.2843 0 15 0C6.71573 0 0 6.71573 0 15Z" fill="#BF9A45"/>
<path d="M24.4879 9.67002L24.482 9.64632C24.0027 7.709 21.8422 5.63014 19.8582 5.19765L19.8358 5.19304C16.6267 4.58084 13.3728 4.58084 10.1643 5.19304L10.1413 5.19765C8.15785 5.63014 5.99737 7.709 5.51748 9.64632L5.51221 9.67002C4.91976 12.3756 4.91976 15.1193 5.51221 17.8248L5.51748 17.8485C5.97689 19.7032 7.97649 21.6865 9.8865 22.232V24.3946C9.8865 25.1773 10.8404 25.5617 11.3828 24.9969L13.5739 22.7193C14.0491 22.7459 14.5246 22.7607 15 22.7607C16.6155 22.7607 18.2316 22.608 19.8358 22.3019L19.8582 22.2973C21.8422 21.8648 24.0027 19.7859 24.482 17.8486L24.4879 17.8249C25.0803 15.1193 25.0803 12.3756 24.4879 9.67002ZM22.754 17.4325C22.434 18.6964 20.7936 20.2677 19.4902 20.558C17.7839 20.8825 16.064 21.0212 14.3459 20.9736C14.3117 20.9727 14.2789 20.9859 14.2551 21.0104C14.0112 21.2607 12.6552 22.6527 12.6552 22.6527L10.9536 24.3991C10.8292 24.5288 10.6106 24.4406 10.6106 24.2615V20.679C10.6106 20.6198 10.5684 20.5695 10.5102 20.5582C10.5099 20.5581 10.5096 20.558 10.5092 20.558C9.20584 20.2677 7.56606 18.6963 7.24547 17.4324C6.71226 14.9869 6.71226 12.5078 7.24547 10.0623C7.56606 8.79839 9.20584 7.22707 10.5092 6.93676C13.4893 6.36998 16.5108 6.36998 19.4902 6.93676C20.7943 7.22707 22.434 8.79839 22.754 10.0623C23.2878 12.5079 23.2878 14.987 22.754 17.4325Z" fill="#F3F3F3"/>
<path d="M17.8353 19.0864C17.6349 19.0256 17.444 18.9847 17.2666 18.9111C15.4289 18.1487 13.7377 17.1651 12.398 15.6573C11.6362 14.7999 11.0399 13.8318 10.5359 12.8074C10.2968 12.3216 10.0954 11.8168 9.89009 11.3152C9.70287 10.8579 9.97863 10.3853 10.269 10.0407C10.5415 9.71731 10.8921 9.4698 11.2718 9.28739C11.5681 9.145 11.8605 9.22709 12.0769 9.47829C12.5448 10.0214 12.9746 10.5922 13.3226 11.2218C13.5366 11.609 13.4779 12.0823 13.0901 12.3458C12.9958 12.4098 12.9099 12.485 12.8221 12.5573C12.7451 12.6207 12.6726 12.6848 12.6198 12.7706C12.5233 12.9277 12.5187 13.1129 12.5808 13.2837C13.0591 14.5982 13.8653 15.6203 15.1883 16.1708C15.4 16.2589 15.6127 16.3614 15.8566 16.333C16.265 16.2853 16.3973 15.8372 16.6835 15.6032C16.9633 15.3744 17.3208 15.3714 17.6221 15.5621C17.9236 15.7528 18.2158 15.9576 18.5062 16.1646C18.7913 16.3678 19.0752 16.5665 19.3382 16.7981C19.591 17.0208 19.6781 17.3129 19.5357 17.6151C19.275 18.1686 18.8957 18.6291 18.3486 18.923C18.1941 19.0059 18.0095 19.0327 17.8353 19.0864C18.0095 19.0327 17.6349 19.0255 17.8353 19.0864Z" fill="#F3F3F3"/>
<path d="M15.005 8.65432C17.4087 8.72166 19.383 10.3169 19.8061 12.6933C19.8782 13.0982 19.9038 13.5122 19.9359 13.9232C19.9494 14.096 19.8515 14.2603 19.6649 14.2625C19.4723 14.2648 19.3856 14.1036 19.3731 13.9308C19.3483 13.5887 19.3311 13.2452 19.284 12.906C19.0352 11.1154 17.6073 9.63398 15.825 9.31609C15.5569 9.26824 15.2824 9.25566 15.0107 9.22716C14.8389 9.20912 14.614 9.19872 14.5759 8.98524C14.544 8.80625 14.6951 8.66373 14.8655 8.65458C14.9119 8.65202 14.9585 8.65412 15.005 8.65432C17.4087 8.72166 14.9585 8.65412 15.005 8.65432Z" fill="#F3F3F3"/>
<path d="M18.6579 13.3897C18.654 13.4198 18.6519 13.4903 18.6343 13.5568C18.5705 13.7981 18.2046 13.8283 18.1204 13.5848C18.0954 13.5125 18.0917 13.4303 18.0915 13.3525C18.0907 12.8434 17.98 12.3348 17.7233 11.8918C17.4594 11.4365 17.0562 11.0538 16.5833 10.8222C16.2973 10.6822 15.9881 10.5952 15.6747 10.5433C15.5377 10.5207 15.3992 10.5069 15.2616 10.4878C15.0948 10.4646 15.0057 10.3583 15.0136 10.1939C15.021 10.0399 15.1335 9.92907 15.3014 9.93855C15.8531 9.96989 16.3859 10.0891 16.8763 10.3488C17.8736 10.8769 18.4433 11.7106 18.6095 12.8237C18.6171 12.8742 18.6292 12.9241 18.633 12.9748C18.6424 13.0998 18.6483 13.2249 18.6579 13.3897C18.654 13.4198 18.6483 13.2249 18.6579 13.3897Z" fill="#F3F3F3"/>
<path d="M17.1629 13.3316C16.9617 13.3352 16.8541 13.2239 16.8334 13.0395C16.819 12.911 16.8076 12.7807 16.7769 12.6556C16.7165 12.4093 16.5855 12.181 16.3783 12.03C16.2805 11.9587 16.1696 11.9068 16.0535 11.8733C15.906 11.8307 15.7528 11.8424 15.6056 11.8064C15.4458 11.7672 15.3574 11.6378 15.3825 11.4878C15.4054 11.3514 15.5381 11.2448 15.6873 11.2556C16.6192 11.3229 17.2852 11.8047 17.3803 12.9018C17.387 12.9792 17.3949 13.061 17.3777 13.1351C17.3483 13.2619 17.2544 13.3254 17.1629 13.3316C17.2544 13.3254 16.9617 13.3352 17.1629 13.3316Z" fill="#F3F3F3"/>
</svg>
