<svg width="30" height="30" viewBox="0 0 30 30" fill="none" xmlns="http://www.w3.org/2000/svg">
<path d="M0 15C0 23.2843 6.71573 30 15 30C23.2843 30 30 23.2843 30 15C30 6.71573 23.2843 0 15 0C6.71573 0 0 6.71573 0 15Z" fill="#BF9A45"/>
<path d="M4.50885 25.5026L5.97834 20.2835C5.03337 18.6782 4.53584 16.8516 4.53584 14.9753C4.53584 9.19783 9.23611 4.49756 15.0135 4.49756C20.791 4.49756 25.4912 9.19783 25.4912 14.9753C25.4912 20.7527 20.791 25.4529 15.0135 25.4529C13.2133 25.4529 11.4506 24.9922 9.89117 24.1172L4.50885 25.5026ZM10.1663 22.211L10.487 22.4068C11.8467 23.2368 13.4119 23.6756 15.0135 23.6756C19.8109 23.6756 23.7138 19.7726 23.7138 14.9753C23.7138 10.1779 19.8109 6.27492 15.0135 6.27492C10.2162 6.27492 6.3132 10.1779 6.3132 14.9753C6.3132 16.6468 6.78829 18.2701 7.68698 19.6695L7.90296 20.0059L7.05674 23.0114L10.1663 22.211Z" fill="#F3F3F3"/>
<path d="M12.0702 10.0984L11.3903 10.0613C11.1768 10.0496 10.9673 10.121 10.8059 10.2612C10.4763 10.5474 9.94929 11.1008 9.78742 11.8219C9.54603 12.897 9.91908 14.2136 10.8846 15.5302C11.8501 16.8467 13.6494 18.9532 16.831 19.8529C17.8563 20.1428 18.6628 19.9474 19.2851 19.5493C19.778 19.2341 20.1177 18.728 20.2402 18.156L20.3487 17.649C20.3832 17.4878 20.3014 17.3243 20.1517 17.2553L17.854 16.1962C17.7048 16.1275 17.5279 16.1709 17.4276 16.301L16.5255 17.4703C16.4574 17.5587 16.3408 17.5937 16.2354 17.5567C15.6177 17.3396 13.5485 16.473 12.413 14.2859C12.3638 14.191 12.376 14.0759 12.4459 13.995L13.308 12.9977C13.3961 12.8959 13.4183 12.7527 13.3654 12.6289L12.3749 10.3117C12.3222 10.1883 12.204 10.1057 12.0702 10.0984Z" fill="#F3F3F3"/>
</svg>
