<svg width="10" height="11" viewBox="0 0 10 11" fill="none" xmlns="http://www.w3.org/2000/svg">
<path d="M5.55242 5.5L9.88558 1.16684C10.0381 1.0143 10.0381 0.766958 9.88558 0.614419C9.73302 0.46186 9.4857 0.46186 9.33316 0.614419L5 4.94758L0.66684 0.614419C0.514282 0.46186 0.266958 0.46186 0.114419 0.614419C-0.0381396 0.766958 -0.0381396 1.0143 0.114419 1.16684L4.44758 5.5L0.114419 9.83317C-0.0381396 9.98573 -0.0381396 10.233 0.114419 10.3856C0.266958 10.5381 0.514282 10.5381 0.66684 10.3856L5 6.05243L9.33316 10.3856C9.4857 10.5381 9.73302 10.5381 9.88558 10.3856C10.0381 10.233 10.0381 9.98571 9.88558 9.83317L5.55242 5.5Z" fill="#BF9A45"/>
</svg>
